<svg width="157" height="159" viewBox="0 0 157 159" fill="none" xmlns="http://www.w3.org/2000/svg">
<path d="M33.2614 73.7005C32.1226 75.0327 30.7897 76.182 29.3086 77.109C30.9189 77.7518 32.3106 78.8519 33.3154 80.2764C34.3202 81.701 34.8952 83.389 34.971 85.1366V117.875H5.72124V85.1366C5.79694 83.389 6.37194 81.701 7.37675 80.2764C8.38157 78.8519 9.77321 77.7517 11.3836 77.1089C9.90237 76.1819 8.56948 75.0325 7.43065 73.7003C5.46192 74.8845 3.82429 76.556 2.67228 78.5569C1.52026 80.5578 0.891842 82.8223 0.846313 85.1366L0.846313 118.656C0.861083 119.442 1.09853 120.208 1.53053 120.862C1.96252 121.516 2.57097 122.031 3.28381 122.346V151.896C3.25896 153.621 3.91215 155.286 5.10019 156.525C6.28823 157.764 7.91415 158.476 9.62147 158.506H11.5709C13.2782 158.476 14.9042 157.764 16.0922 156.525C17.2802 155.286 17.9334 153.621 17.9086 151.896V122.8H22.7836V151.896C22.7587 153.621 23.4119 155.286 24.6 156.525C25.788 157.764 27.414 158.476 29.1213 158.506H31.0707C32.778 158.476 34.4039 157.764 35.592 156.525C36.78 155.286 37.4332 153.621 37.4084 151.896V122.346C38.1212 122.031 38.7297 121.516 39.1617 120.862C39.5936 120.208 39.8311 119.442 39.8459 118.656V85.1366C39.8003 82.8223 39.1719 80.5579 38.0198 78.557C36.8678 76.5561 35.2301 74.8847 33.2614 73.7005ZM13.0337 151.896C13.0586 152.315 12.919 152.727 12.6451 153.042C12.3713 153.358 11.9853 153.552 11.5709 153.581H9.62147C9.20714 153.552 8.82114 153.358 8.54728 153.042C8.27342 152.727 8.13379 152.315 8.15873 151.896V122.8H13.0337V151.896ZM32.5334 151.896C32.5584 152.315 32.4188 152.727 32.1449 153.042C31.871 153.358 31.485 153.552 31.0707 153.581H29.1213C28.707 153.552 28.321 153.358 28.0471 153.042C27.7733 152.727 27.6336 152.315 27.6586 151.896V122.8H32.5335L32.5334 151.896Z" fill="#21B1DF"/>
<path d="M20.3461 74.7812C27.077 74.7812 32.5335 69.2688 32.5335 62.4688C32.5335 55.6688 27.077 50.1564 20.3461 50.1564C13.6152 50.1564 8.15869 55.6688 8.15869 62.4688C8.15869 69.2688 13.6152 74.7812 20.3461 74.7812Z" fill="#21B1DF"/>
<path d="M103.22 25.5312C109.951 25.5312 115.408 20.0188 115.408 13.2188C115.408 6.41884 109.951 0.906372 103.22 0.906372C96.4893 0.906372 91.0328 6.41884 91.0328 13.2188C91.0328 20.0188 96.4893 25.5312 103.22 25.5312Z" fill="#21B1DF"/>
<path d="M82.5017 47.6938C89.2326 47.6938 94.6891 42.1813 94.6891 35.3813C94.6891 28.5814 89.2326 23.0689 82.5017 23.0689C75.7708 23.0689 70.3143 28.5814 70.3143 35.3813C70.3143 42.1813 75.7708 47.6938 82.5017 47.6938Z" fill="#21B1DF"/>
<path d="M123.939 47.6937C130.67 47.6937 136.126 42.1813 136.126 35.3813C136.126 28.5813 130.67 23.0688 123.939 23.0688C117.208 23.0688 111.751 28.5813 111.751 35.3813C111.751 42.1813 117.208 47.6937 123.939 47.6937Z" fill="#21B1DF"/>
<path d="M67.5537 64.1402L67.5947 64.1528L69.0956 64.633V56.7111C69.1736 55.2866 69.647 53.9131 70.4615 52.7477C71.2761 51.5823 72.3989 50.6721 73.7016 50.1212C72.2229 49.2173 70.8879 48.0928 69.7419 46.7859C68.0869 47.8564 66.7177 49.3215 65.7549 51.0523C64.7921 52.783 64.2652 54.7263 64.2205 56.7111V63.7335C65.3466 63.6705 66.4748 63.8081 67.5537 64.1402Z" fill="#21B1DF"/>
<path d="M100.783 74.7712V56.7112C100.738 54.7264 100.211 52.7831 99.2482 51.0524C98.2854 49.3217 96.9163 47.8566 95.2613 46.7861C94.1152 48.0929 92.7802 49.2174 91.3016 50.1214C92.6042 50.6722 93.7271 51.5824 94.5417 52.7478C95.3563 53.9132 95.8297 55.2867 95.9077 56.7111V73.2115L100.783 74.7712Z" fill="#21B1DF"/>
<path d="M132.739 50.1213C134.041 50.6722 135.164 51.5824 135.979 52.7478C136.793 53.9132 137.267 55.2867 137.345 56.7111V63.9246C138.964 63.5867 140.642 63.6725 142.22 64.1739V56.7111C142.175 54.7263 141.648 52.783 140.685 51.0523C139.722 49.3216 138.353 47.8565 136.698 46.786C135.552 48.0929 134.217 49.2174 132.739 50.1213Z" fill="#21B1DF"/>
<path d="M105.658 56.7112V73.9915L110.533 72.4318V56.7112C110.611 55.2867 111.084 53.9132 111.899 52.7478C112.713 51.5824 113.836 50.6722 115.139 50.1213C113.66 49.2174 112.325 48.0929 111.179 46.7859C109.524 47.8565 108.155 49.3216 107.192 51.0523C106.229 52.783 105.702 54.7263 105.658 56.7112Z" fill="#21B1DF"/>
<path d="M155.255 81.6782L142.601 69.9218C141.977 69.343 141.215 68.939 140.389 68.7499C139.563 68.5608 138.703 68.5932 137.893 68.8439L102.001 80.3274L66.1231 68.8481L66.1094 68.8439C65.3 68.5935 64.4399 68.5612 63.6143 68.7502C62.7888 68.9392 62.0264 69.3429 61.4029 69.9212L48.7484 81.6776C48.1248 82.2569 47.6598 82.9892 47.3986 83.8033C47.1374 84.6175 47.0888 85.4861 47.2575 86.3248C47.4262 87.1635 47.8065 87.944 48.3615 88.5907C48.9165 89.2373 49.6274 89.7282 50.4254 90.0156L85.5027 102.822C86.4264 103.151 87.4268 103.192 88.3734 102.937C89.32 102.683 90.1688 102.147 90.809 101.398L102.002 88.4532L113.194 101.398C113.652 101.932 114.218 102.36 114.853 102.653C115.489 102.947 116.179 103.099 116.878 103.099C117.438 103.099 117.994 103.002 118.522 102.814L153.556 90.0234C154.357 89.739 155.072 89.25 155.63 88.6039C156.188 87.9578 156.572 87.1767 156.743 86.3365C156.914 85.4963 156.867 84.6258 156.606 83.8095C156.345 82.9932 155.88 82.2589 155.255 81.6782L155.255 81.6782ZM116.865 98.1576L105.238 84.7098L139.311 73.5567L151.921 85.3841L116.865 98.1576Z" fill="#21B1DF"/>
<path d="M139.784 118.675C139.788 119.2 139.633 119.713 139.338 120.144C139.044 120.576 138.625 120.906 138.139 121.089L104.44 133.155V98.7538L102.003 95.9342L94.4829 104.639C93.2002 106.127 91.5054 107.192 89.6175 107.697C87.7296 108.201 85.7352 108.123 83.892 107.471L59.3463 98.5198V118.675C59.3423 120.218 59.8111 121.725 60.6883 122.988C61.5655 124.251 62.8082 125.209 64.2457 125.73L99.5773 138.388C101.143 138.946 102.85 138.946 104.416 138.388L139.759 125.73C141.196 125.207 142.437 124.249 143.314 122.986C144.191 121.723 144.66 120.218 144.659 118.675V98.5075L139.784 100.293V118.675Z" fill="#21B1DF"/>
</svg>
