<svg width="60" height="69" viewBox="0 0 60 69" fill="none" xmlns="http://www.w3.org/2000/svg">
<path d="M18 23.2C18 16.5722 23.3718 11.2 30 11.2C36.6278 11.2 42 16.5718 42 23.2C42 29.8278 36.6282 35.2 30 35.2C23.3722 35.2 18 29.8283 18 23.2ZM34.0641 16.3075C32.8731 15.6038 31.4838 15.2 30 15.2C25.581 15.2 22 18.7813 22 23.2C22 24.6838 22.4038 26.0731 23.1075 27.2641L34.0641 16.3075ZM36.8925 19.1359L25.9359 30.0926C27.1269 30.7962 28.5162 31.2 30 31.2C34.419 31.2 38 27.6187 38 23.2C38 21.7162 37.5962 20.3269 36.8925 19.1359ZM14 46.2C12.8954 46.2 12 45.3046 12 44.2C12 43.0954 12.8954 42.2 14 42.2H46C47.1046 42.2 48 43.0954 48 44.2C48 45.3046 47.1046 46.2 46 46.2H14ZM4 4.20001V66.2C4 67.3046 3.10457 68.2 2 68.2C0.895431 68.2 0 67.3046 0 66.2V2.20001C0 1.09544 0.895431 0.200012 2 0.200012H58C59.1046 0.200012 60 1.09544 60 2.20001V66.2C60 67.3046 59.1046 68.2 58 68.2C56.8954 68.2 56 67.3046 56 66.2V4.20001H4ZM14 57.2C12.8954 57.2 12 56.3046 12 55.2C12 54.0954 12.8954 53.2 14 53.2H46C47.1046 53.2 48 54.0954 48 55.2C48 56.3046 47.1046 57.2 46 57.2H14ZM14 68.2C12.8954 68.2 12 67.3046 12 66.2C12 65.0954 12.8954 64.2 14 64.2H30C31.1046 64.2 32 65.0954 32 66.2C32 67.3046 31.1046 68.2 30 68.2H14Z" fill="#E48060"/>
</svg>
