<svg width="105" height="126" viewBox="0 0 105 126" fill="none" xmlns="http://www.w3.org/2000/svg">
<path d="M41.6344 14.0148H48.4883V23.8485C48.4875 24.3491 48.5854 24.845 48.7764 25.3078C48.9674 25.7706 49.2478 26.1911 49.6016 26.5454C49.9553 26.8997 50.3754 27.1808 50.8379 27.3726C51.3003 27.5644 51.7961 27.6631 52.2967 27.6631C52.7974 27.6631 53.2931 27.5644 53.7556 27.3726C54.218 27.1808 54.6381 26.8997 54.9919 26.5454C55.3456 26.1911 55.626 25.7706 55.817 25.3078C56.008 24.845 56.1059 24.3491 56.1051 23.8485V14.0148H62.9591C63.2026 14.015 63.4407 13.9429 63.6433 13.8077C63.8458 13.6724 64.0037 13.4801 64.0968 13.2551C64.19 13.0301 64.2143 12.7825 64.1666 12.5437C64.119 12.3048 64.0015 12.0855 63.8291 11.9135L53.1669 1.25113C53.0528 1.13663 52.9172 1.04578 52.7679 0.983791C52.6185 0.921802 52.4585 0.889893 52.2968 0.889893C52.1351 0.889893 51.975 0.921802 51.8257 0.983791C51.6764 1.04578 51.5408 1.13663 51.4267 1.25113L40.7643 11.9135H40.7633C40.6483 12.0248 40.557 12.1581 40.4948 12.3056C40.4326 12.453 40.4008 12.6115 40.4013 12.7716C40.4012 12.9373 40.4336 13.1014 40.4964 13.2547C40.5878 13.481 40.7452 13.6746 40.9482 13.8102C41.1511 13.9458 41.3903 14.0171 41.6344 14.0148Z" fill="#A670D0"/>
<path d="M37.1828 70.1964C38.1206 72.5681 39.4722 74.7545 41.1746 76.6535C42.4689 78.2484 44.0909 79.5464 45.9307 80.4596C47.7705 81.3728 49.7851 81.8798 51.838 81.9464C53.8909 82.0129 55.9341 81.6374 57.8292 80.8453C59.7243 80.0531 61.4269 78.8629 62.8218 77.3552C63.0214 77.1554 63.2083 76.9432 63.3813 76.7199C65.1015 74.8022 66.4661 72.5931 67.4111 70.1964C68.8736 69.7159 70.1474 68.7866 71.0513 67.5405C71.9552 66.2944 72.4432 64.795 72.4459 63.2556V59.0931C72.4498 58.2453 72.2166 57.4134 71.7726 56.6912C71.3285 55.9691 70.6914 55.3855 69.9332 55.0064V48.1794C69.9418 45.9976 69.4394 43.8441 68.4663 41.8913C67.4932 39.9386 66.0765 38.2408 64.3294 36.9338C60.8824 34.3506 56.6699 32.9954 52.3632 33.0842C52.1395 33.0622 51.9148 33.0527 51.69 33.0557C47.5741 33.1475 43.5857 34.5013 40.2644 36.9338C38.5198 38.2418 37.1059 39.9403 36.1361 41.8932C35.1662 43.846 34.6674 45.999 34.6795 48.1794V55.0064C33.9177 55.3828 33.2768 55.9653 32.8293 56.6877C32.3818 57.41 32.1457 58.2433 32.1479 59.0931V63.2556C32.1505 64.795 32.6386 66.2944 33.5425 67.5405C34.4464 68.7866 35.7202 69.7159 37.1828 70.1964ZM50.8841 71.6281C50.3126 71.629 49.7538 71.4604 49.2782 71.1435C48.8027 70.8266 48.4319 70.3757 48.2128 69.8479C47.9937 69.3201 47.9361 68.7392 48.0474 68.1787C48.1587 67.6182 48.4337 67.1033 48.8378 66.6993C49.2419 66.2952 49.7568 66.0201 50.3173 65.9089C50.8778 65.7976 51.4587 65.8552 51.9865 66.0743C52.5142 66.2934 52.9651 66.6642 53.282 67.1398C53.5989 67.6153 53.7675 68.1742 53.7666 68.7456C53.7648 69.5095 53.4605 70.2417 52.9203 70.7819C52.3801 71.322 51.648 71.6263 50.8841 71.6281ZM48.5136 43.6755C51.1901 43.0475 53.9989 43.3174 56.5069 44.4435C57.732 45.0607 58.7695 45.9948 59.5115 47.1487C60.2535 48.3026 60.673 49.6341 60.7263 51.005C60.7339 52.339 60.4686 53.6606 59.9468 54.8884C59.4251 56.1162 58.6578 57.2244 57.6921 58.1449C57.2749 58.5431 56.8197 58.9224 56.3836 59.2922L55.9758 59.624C55.5492 59.9749 55.1035 60.3352 54.6958 60.7145C54.2622 61.0931 53.8796 61.5265 53.558 62.004C53.3328 62.3207 53.1807 62.6834 53.1123 63.066H49.0825C49.166 61.9191 49.5485 60.8141 50.1919 59.8611C50.6907 59.0868 51.2937 58.3848 51.984 57.7751C52.4676 57.339 52.9606 56.9312 53.4537 56.533L53.833 56.2106C54.2027 55.8977 54.5725 55.5848 54.9234 55.2624C55.4896 54.7235 55.9424 54.0767 56.255 53.3602C56.5677 52.6438 56.7339 51.872 56.7439 51.0903C56.6994 50.4455 56.4881 49.8233 56.1307 49.2848C55.7734 48.7462 55.2822 48.3097 54.7053 48.0182C52.976 47.2859 51.0546 47.1393 49.2342 47.601C47.9181 47.8594 46.6316 48.2501 45.3941 48.7673L43.858 45.0788C45.3546 44.4442 46.9156 43.9736 48.5136 43.6755Z" fill="#A670D0"/>
<path d="M82.2076 92.0671L66.8216 84.2665L57.0075 110.302L54.5002 94.5105L56.1558 90.9526C56.1705 90.9197 56.1768 90.8836 56.1739 90.8476C56.171 90.8116 56.1591 90.7769 56.1392 90.7468C56.1194 90.7166 56.0923 90.692 56.0604 90.675C56.0285 90.6581 55.9928 90.6496 55.9568 90.6501H48.6371C48.601 90.6495 48.5654 90.6581 48.5335 90.675C48.5015 90.6919 48.4744 90.7166 48.4546 90.7467C48.4347 90.7769 48.4228 90.8116 48.4199 90.8476C48.4171 90.8836 48.4233 90.9197 48.4381 90.9526L50.0937 94.5105L47.5864 110.302L37.7722 84.2665L22.3861 92.0671C21.3905 92.5704 20.5281 93.3024 19.8696 94.203C19.2111 95.1036 18.7751 96.1472 18.5974 97.2486L14.0047 125.8H90.5892L85.9964 97.2486C85.8187 96.1472 85.3827 95.1035 84.7242 94.2029C84.0657 93.3023 83.2033 92.5704 82.2076 92.0671Z" fill="#A670D0"/>
<path d="M27.319 50.9179C27.3176 49.9081 26.9158 48.9401 26.2017 48.2261C25.4876 47.5122 24.5194 47.1106 23.5096 47.1096H13.6759V40.2556C13.6782 40.0115 13.6069 39.7723 13.4713 39.5693C13.3357 39.3663 13.1421 39.2089 12.9157 39.1176C12.7624 39.0547 12.5983 39.0224 12.4326 39.0225C12.2726 39.022 12.1141 39.0538 11.9667 39.116C11.8192 39.1782 11.6858 39.2695 11.5745 39.3845V39.3854L0.912207 50.0478C0.797738 50.1619 0.706918 50.2975 0.644951 50.4469C0.582983 50.5962 0.551086 50.7563 0.551086 50.9179C0.551086 51.0796 0.582983 51.2397 0.644951 51.389C0.706918 51.5383 0.797738 51.6739 0.912207 51.7881L11.5745 62.4503C11.7466 62.6227 11.9659 62.7402 12.2048 62.7879C12.4436 62.8355 12.6912 62.8112 12.9162 62.718C13.1413 62.6249 13.3336 62.467 13.4688 62.2645C13.6041 62.0619 13.6762 61.8238 13.676 61.5802V54.7263H23.5096C24.5194 54.7252 25.4876 54.3237 26.2017 53.6097C26.9158 52.8958 27.3176 51.9277 27.319 50.9179Z" fill="#A670D0"/>
<path d="M103.682 50.0478L93.0192 39.3854V39.3845C92.9079 39.2695 92.7746 39.1782 92.6271 39.116C92.4797 39.0538 92.3212 39.022 92.1612 39.0225C91.9955 39.0224 91.8314 39.0547 91.678 39.1176C91.4517 39.2089 91.2581 39.3663 91.1225 39.5693C90.9868 39.7723 90.9155 40.0115 90.9178 40.2556V47.1095H81.0842C80.0741 47.1095 79.1054 47.5107 78.3912 48.225C77.677 48.9392 77.2758 49.9079 77.2758 50.9179C77.2758 51.928 77.677 52.8967 78.3912 53.6109C79.1054 54.3251 80.0741 54.7263 81.0842 54.7263H90.9178V61.5802C90.9176 61.8238 90.9897 62.0619 91.125 62.2644C91.2602 62.467 91.4525 62.6249 91.6776 62.718C91.9026 62.8112 92.1502 62.8355 92.389 62.7879C92.6279 62.7402 92.8472 62.6227 93.0192 62.4503L103.682 51.7881C103.796 51.6739 103.887 51.5383 103.949 51.389C104.011 51.2397 104.043 51.0796 104.043 50.9179C104.043 50.7562 104.011 50.5962 103.949 50.4469C103.887 50.2975 103.796 50.1619 103.682 50.0478V50.0478Z" fill="#A670D0"/>
</svg>
